Coordinates
version=1
nRows=34
nColumns=33
inDegrees=yes

Units are S.I. units (second, meters, Newtons, ...)
Angles are in degrees.

endheader
time	ground_thorax_rot_x	ground_thorax_rot_y	ground_thorax_rot_z	ground_thorax_tx	ground_thorax_ty	ground_thorax_tz	clav_prot_r	clav_elev_r	scapula_abduction_r	scapula_elevation_r	scapula_upward_rot_r	scapula_winging_r	shoulder_elv_r	plane_of_elev_r	axial_rot_r	elbow_flexion_r	pro_sup_r	wrist_flex_r	wrist_dev_r	clav_prot_l	clav_elev_l	scapula_abduction_l	scapula_elevation_l	scapula_upward_rot_l	scapula_winging_l	shoulder_elv_l	plane_of_elev_l	axial_rot_l	elbow_flexion_l	pro_sup_l	wrist_flex_l	wrist_dev_l	
4.4100	-40.213468	-7.430363	12.728017	-129.262208	797.434536	5.835185	6.251587	-45.000000	40.884959	-45.000000	-36.737361	-1169.664678	-1187.441504	142.959257	180.000000	1090.469014	55.461620	24.831198	12.029620	18.871021	41.873942	-43.173377	-45.000000	-35.449075	-639.862238	-2811.218903	26.902372	-24.313445	370.295726	19.314347	6.755262	-19.988443	
4.4200	-40.175534	-7.425562	12.805478	-131.843713	798.777942	5.810067	6.276247	-45.000000	40.801027	-45.000000	-37.127403	-1169.883903	-1187.163120	142.884593	180.000000	1090.586092	55.505370	24.887470	11.932046	18.731456	41.834391	-43.051067	-45.000000	-35.500087	-639.655600	-2811.058812	26.859121	-24.424903	370.352445	19.029721	6.692093	-20.027136	
4.4300	-40.124338	-7.440349	12.916809	-134.402274	800.107384	5.789665	6.314939	-45.000000	40.704816	-45.000000	-37.544547	-1170.111631	-1186.885827	142.809406	180.000000	1090.689691	55.553813	24.939157	11.830964	18.620019	41.768090	-42.930133	-45.000000	-35.632035	-639.470008	-2810.874896	26.821593	-24.477931	370.409337	18.742802	6.630467	-20.061709	
4.4400	-40.075144	-7.431568	13.002257	-136.940067	801.424738	5.769680	6.334587	-45.000000	40.621582	-45.000000	-37.877313	-1170.338486	-1186.631287	142.755401	180.000000	1090.770782	55.607790	24.979792	11.722274	18.494618	41.708846	-42.817487	-45.000000	-35.731283	-639.271525	-2810.708493	26.785142	-24.569423	370.465705	18.471222	6.578455	-20.097636	
4.4500	-40.022803	-7.425674	13.086197	-139.462682	802.733643	5.745380	6.366428	-45.000000	40.545831	-45.000000	-38.201111	-1170.570450	-1186.384443	142.701140	180.000000	1090.847120	55.668393	25.014943	11.610184	18.380346	41.639682	-42.708249	-45.000000	-35.855376	-639.079079	-2810.538926	26.748576	-24.652924	370.518834	18.196080	6.523883	-20.128323	
4.4600	-39.967874	-7.426781	13.171768	-141.974659	804.037676	5.713321	6.407992	-45.000000	40.480819	-45.000000	-38.535126	-1170.803981	-1186.139738	142.646460	180.000000	1090.922704	55.736775	25.045164	11.496425	18.274692	41.563444	-42.602703	-45.000000	-36.014969	-638.897197	-2810.362153	26.712823	-24.715704	370.566546	17.906321	6.470196	-20.154564	
4.4700	-39.900155	-7.470257	13.307798	-144.478303	805.339550	5.671904	6.494799	-45.000000	40.403526	-45.000000	-38.987650	-1171.058179	-1185.883596	142.562380	180.000000	1091.018262	55.813691	25.078749	11.386939	18.205186	41.430317	-42.501998	-45.000000	-36.320039	-638.741974	-2810.150417	26.694710	-24.683927	370.607843	17.566360	6.408124	-20.169819	
4.4800	-39.835805	-7.510472	13.432565	-146.972543	806.640725	5.621552	6.579041	-45.000000	40.330958	-45.000000	-39.438669	-1171.310224	-1185.635042	142.479402	180.000000	1091.116025	55.897271	25.106106	11.275130	18.134409	41.292654	-42.402924	-45.000000	-36.638948	-638.591245	-2809.938071	26.683663	-24.641839	370.642387	17.191453	6.360042	-20.184250	
4.4900	-39.769990	-7.560230	13.561832	-149.454413	807.941709	5.564024	6.679251	-45.000000	40.258462	-45.000000	-39.918568	-1171.571227	-1185.388850	142.387693	180.000000	1091.225509	55.985433	25.132225	11.164937	18.076070	41.135428	-42.306532	-45.000000	-37.001189	-638.441500	-2809.723857	26.683939	-24.595747	370.671967	16.772487	6.311787	-20.192468	
4.5000	-39.712451	-7.590392	13.653628	-151.920573	809.242799	5.501474	6.762370	-45.000000	40.202925	-45.000000	-40.339080	-1171.819935	-1185.153633	142.314688	180.000000	1091.333423	56.073342	25.150846	11.053722	18.012170	41.014460	-42.207602	-45.000000	-37.312676	-638.285528	-2809.524930	26.675919	-24.597927	370.705358	16.327387	6.274477	-20.201731	
4.5100	-39.657200	-7.616019	13.732677	-154.368809	810.544528	5.435588	6.844027	-45.000000	40.151988	-45.000000	-40.746438	-1172.065527	-1184.924221	142.247468	180.000000	1091.442389	56.156746	25.164517	10.942555	17.950014	40.900783	-42.109768	-45.000000	-37.614592	-638.129619	-2809.334675	26.664949	-24.625287	370.734599	15.853434	6.242739	-20.207428	
4.5200	-39.611620	-7.615977	13.774468	-156.797944	811.847597	5.367330	6.901448	-45.000000	40.105339	-45.000000	-41.091748	-1172.296034	-1184.708099	142.198603	180.000000	1091.541864	56.228538	25.167327	10.827104	17.871720	40.821731	-42.011940	-45.000000	-37.833342	-637.966163	-2809.171090	26.638899	-24.722267	370.757285	15.369503	6.225889	-20.213709	
4.5300	-39.566780	-7.616306	13.816410	-159.207436	813.152523	5.297020	6.964501	-45.000000	40.050205	-45.000000	-41.450786	-1172.527571	-1184.495987	142.145442	180.000000	1091.640323	56.284416	25.165901	10.713509	17.795668	40.735696	-41.917501	-45.000000	-38.047620	-637.800010	-2809.018729	26.611399	-24.854263	370.771338	14.865740	6.209103	-20.213524	
4.5400	-39.530354	-7.590191	13.827855	-161.596987	814.459628	5.224486	7.004326	-45.000000	39.993515	-45.000000	-41.744513	-1172.744948	-1184.302516	142.113713	180.000000	1091.726213	56.319584	25.153276	10.595930	17.702659	40.679652	-41.823086	-45.000000	-38.181268	-637.634759	-2808.889912	26.566661	-25.033291	370.776121	14.358618	6.210993	-20.213455	
4.5500	-39.490042	-7.578496	13.861537	-163.966494	815.769036	5.149289	7.059325	-45.000000	39.923145	-45.000000	-42.096228	-1172.966515	-1184.106299	142.068429	180.000000	1091.808622	56.331378	25.136763	10.482249	17.617270	40.595089	-41.733630	-45.000000	-38.358634	-637.476635	-2808.757426	26.526247	-25.199323	370.772609	13.827148	6.214056	-20.206459	
4.5600	-39.454363	-7.556048	13.878912	-166.315306	817.080503	5.070989	7.101884	-45.000000	39.856475	-45.000000	-42.414102	-1173.178391	-1183.923347	142.038376	180.000000	1091.882538	56.317597	25.114133	10.372878	17.524852	40.527929	-41.644329	-45.000000	-38.504415	-637.317643	-2808.633647	26.476889	-25.388087	370.771438	13.287915	6.229473	-20.200068	
4.5700	-39.415539	-7.551793	13.913055	-168.642499	818.393510	4.989371	7.163463	-45.000000	39.787189	-45.000000	-42.792961	-1173.397139	-1183.732746	141.989693	180.000000	1091.957820	56.276422	25.093563	10.278635	17.449656	40.437445	-41.555779	-45.000000	-38.708857	-637.154362	-2808.501429	26.441981	-25.580125	370.773614	12.730983	6.234725	-20.187611	
4.5800	-39.384664	-7.520527	13.908103	-170.946068	819.706879	4.904599	7.200662	-45.000000	39.736878	-45.000000	-43.078085	-1173.601209	-1183.564418	141.973303	180.000000	1092.021813	56.208770	25.067865	10.192266	17.363761	40.390167	-41.461892	-45.000000	-38.841129	-636.992736	-2808.383656	26.392783	-25.800962	370.781746	12.184382	6.254800	-20.179406	
4.5900	-39.351889	-7.499764	13.912490	-173.223621	821.018885	4.817230	7.251170	-45.000000	39.683126	-45.000000	-43.418785	-1173.809860	-1183.385715	141.935856	180.000000	1092.084076	56.112970	25.042571	10.118310	17.288877	40.322728	-41.368596	-45.000000	-39.013000	-636.831344	-2808.261118	26.354534	-26.024225	370.787440	11.635477	6.266641	-20.167488	
4.6000	-39.320244	-7.467186	13.906160	-175.471767	822.326836	4.728158	7.298390	-45.000000	39.633201	-45.000000	-43.731520	-1174.017268	-1183.218809	141.906807	180.000000	1092.139093	55.992100	25.015070	10.052810	17.211252	40.264696	-41.279167	-45.000000	-39.159894	-636.673979	-2808.148559	26.307944	-26.251831	370.792630	11.092710	6.280284	-20.156106	
4.6100	-39.284737	-7.442111	13.912917	-177.687147	823.627468	4.638483	7.363339	-45.000000	39.572798	-45.000000	-44.104425	-1174.234883	-1183.039955	141.849917	180.000000	1092.194028	55.848087	24.989525	9.996507	17.143734	40.174065	-41.196372	-45.000000	-39.348140	-636.519483	-2808.036203	26.270897	-26.472824	370.787237	10.543309	6.282708	-20.139435	
4.6200	-39.256550	-7.381682	13.884553	-179.866167	824.916879	4.549421	7.398896	-45.000000	39.526143	-45.000000	-44.365953	-1174.433861	-1182.890462	141.835442	180.000000	1092.234146	55.690617	24.955993	9.936123	17.055649	40.129248	-41.116637	-45.000000	-39.443391	-636.376169	-2807.945177	26.206960	-26.705644	370.780531	10.008457	6.306290	-20.129391	
4.6300	-39.230266	-7.315364	13.848850	-182.006099	826.191207	4.462171	7.434756	-45.000000	39.480610	-45.000000	-44.628536	-1174.627007	-1182.741734	141.818417	180.000000	1092.274344	55.527993	24.923204	9.874120	16.967264	40.081021	-41.035537	-45.000000	-39.539387	-636.239807	-2807.852552	26.141773	-26.942543	370.775928	9.475660	6.331929	-20.120354	
4.6400	-39.211998	-7.216841	13.773266	-184.104669	827.446757	4.377832	7.453011	-45.000000	39.449211	-45.000000	-44.791890	-1174.806236	-1182.619370	141.825487	180.000000	1092.305014	55.373855	24.890952	9.809391	16.868458	40.058401	-40.953733	-45.000000	-39.561909	-636.110893	-2807.773511	26.061112	-27.179743	370.776696	8.954489	6.368114	-20.116297	
4.6500	-39.197543	-7.100584	13.670872	-186.160539	828.680494	4.297281	7.466427	-45.000000	39.428400	-45.000000	-44.905530	-1174.979923	-1182.507458	141.837279	180.000000	1092.336571	55.236753	24.864759	9.742834	16.767736	40.040321	-40.870060	-45.000000	-39.553781	-635.988180	-2807.704851	25.976859	-27.429088	370.776757	8.443941	6.404241	-20.112760	
4.6600	-39.187089	-6.960872	13.539003	-188.173061	829.890232	4.221072	7.471213	-45.000000	39.419696	-45.000000	-44.938163	-1175.146611	-1182.416365	141.863035	180.000000	1092.359138	55.126398	24.843388	9.675052	16.663608	40.029393	-40.787660	-45.000000	-39.500663	-635.875930	-2807.650604	25.886201	-27.669676	370.771099	7.944299	6.443170	-20.109599	
4.6700	-39.177065	-6.816261	13.397753	-190.142377	831.074822	4.149350	7.481006	-45.000000	39.417671	-45.000000	-44.951028	-1175.312764	-1182.331589	141.885503	180.000000	1092.382085	55.044666	24.829565	9.607225	16.564529	40.006738	-40.706555	-45.000000	-39.455816	-635.769764	-2807.600202	25.798965	-27.906377	370.765808	7.448225	6.476455	-20.105165	
4.6800	-39.164701	-6.672982	13.260563	-192.069193	832.234148	4.081859	7.504886	-45.000000	39.412141	-45.000000	-44.972096	-1175.486526	-1182.251638	141.892173	180.000000	1092.401179	54.991543	24.823364	9.542527	16.475682	39.949474	-40.634707	-45.000000	-39.437523	-635.670586	-2807.553930	25.720155	-28.105994	370.750913	6.944758	6.499297	-20.095698	
4.6900	-39.145705	-6.544872	13.143866	-193.954384	833.368851	4.018052	7.543620	-45.000000	39.415353	-45.000000	-44.989652	-1175.664791	-1182.181686	141.905819	180.000000	1092.413422	54.964600	24.823380	9.484627	16.401789	39.867569	-40.572713	-45.000000	-39.498322	-635.574855	-2807.503244	25.660441	-28.290786	370.734384	6.424616	6.509889	-20.081531	
4.7000	-39.125758	-6.419435	13.030735	-195.799087	834.480289	3.957281	7.583636	-45.000000	39.417360	-45.000000	-45.000000	-1175.838674	-1182.116614	141.922653	180.000000	1092.421703	54.957983	24.824163	9.428174	16.334859	39.784016	-40.507460	-45.000000	-39.581762	-635.490807	-2807.447182	25.610269	-28.454017	370.717361	5.893702	6.525739	-20.065420	
4.7100	-39.107437	-6.298801	12.920793	-197.604188	835.569983	3.899051	7.622043	-45.000000	39.422823	-45.000000	-45.000000	-1176.003608	-1182.059612	141.949841	180.000000	1092.430425	54.964845	24.824752	9.372695	16.271266	39.714636	-40.435554	-45.000000	-39.676700	-635.410671	-2807.385615	25.563984	-28.628781	370.711990	5.360814	6.544823	-20.050377	
4.7200	-39.093356	-6.175330	12.804010	-199.370378	836.639377	3.843261	7.656502	-45.000000	39.421986	-45.000000	-45.000000	-1176.160251	-1182.004551	141.973811	180.000000	1092.440410	54.977477	24.823120	9.315981	16.207827	39.657422	-40.354664	-45.000000	-39.755345	-635.336741	-2807.321543	25.518442	-28.812107	370.713302	4.836600	6.569116	-20.036082	
4.7300	-39.077650	-6.066235	12.703225	-201.097682	837.689227	3.790364	7.694228	-45.000000	39.423998	-45.000000	-45.000000	-1176.311482	-1181.956568	142.008350	180.000000	1092.445507	54.991109	24.818983	9.262713	16.151163	39.605769	-40.276540	-45.000000	-39.874276	-635.265403	-2807.253067	25.479268	-29.006795	370.717157	4.320150	6.588114	-20.019792	
4.7400	-39.064482	-5.957748	12.601232	-202.785968	838.719628	3.741382	7.726768	-45.000000	39.426348	-45.000000	-45.000000	-1176.454734	-1181.909947	142.046409	180.000000	1092.448542	55.000706	24.811564	9.209339	16.095012	39.563728	-40.197208	-45.000000	-39.992913	-635.202994	-2807.182644	25.439132	-29.195658	370.720558	3.817892	6.611628	-20.002704	
